<svg width="15" height="16" viewBox="0 0 15 16" fill="none" xmlns="http://www.w3.org/2000/svg">
    <path fill-rule="evenodd" clip-rule="evenodd" d="M6.875 2.84375C4.37246 2.84375 2.34375 4.87246 2.34375 7.375C2.34375 8.477 2.73656 9.48606 3.39029 10.2716C3.49249 10.3944 3.52511 10.5608 3.47684 10.7131L3.01531 12.1692L4.89252 11.5778C4.99524 11.5454 5.10598 11.5494 5.2061 11.5891C5.72196 11.7936 6.28475 11.9062 6.875 11.9062H8.125C10.6276 11.9062 12.6562 9.87756 12.6562 7.375C12.6562 4.87246 10.6276 2.84375 8.125 2.84375H6.875ZM1.40625 7.375C1.40625 4.35469 3.85469 1.90625 6.875 1.90625H8.125C11.1453 1.90625 13.5938 4.35469 13.5938 7.375C13.5938 10.3953 11.1453 12.8438 8.125 12.8438H6.875C6.22436 12.8438 5.59935 12.7299 5.01943 12.5208L3.01029 13.1537C2.40697 13.3437 1.83969 12.7755 2.0308 12.1725L2.33631 12.2694L2.0308 12.1725L2.50791 10.6672C1.81654 9.75144 1.40625 8.61062 1.40625 7.375Z" fill="#9E9E9E"/>
    <path d="M5.3125 8C5.65768 8 5.9375 7.72018 5.9375 7.375C5.9375 7.02982 5.65768 6.75 5.3125 6.75C4.96732 6.75 4.6875 7.02982 4.6875 7.375C4.6875 7.72018 4.96732 8 5.3125 8Z" fill="#9E9E9E"/>
    <path d="M7.5 8C7.84518 8 8.125 7.72018 8.125 7.375C8.125 7.02982 7.84518 6.75 7.5 6.75C7.15482 6.75 6.875 7.02982 6.875 7.375C6.875 7.72018 7.15482 8 7.5 8Z" fill="#9E9E9E"/>
    <path d="M9.6875 8C10.0327 8 10.3125 7.72018 10.3125 7.375C10.3125 7.02982 10.0327 6.75 9.6875 6.75C9.34232 6.75 9.0625 7.02982 9.0625 7.375C9.0625 7.72018 9.34232 8 9.6875 8Z" fill="#9E9E9E"/>
</svg>
