<svg width="26" height="26" viewBox="0 0 26 26" fill="none" xmlns="http://www.w3.org/2000/svg">
    <path d="M21.5126 12.9839L18.5227 15.994M10.5126 13.021L21.5126 12.9839L10.5126 13.021ZM21.5126 12.9839L18.5025 9.99401L21.5126 12.9839Z" stroke="#FF0000" stroke-width="1.5" stroke-linecap="round" stroke-linejoin="round"/>
    <path d="M6.0262 17.0362L5.99919 9.03626C5.99586 8.04994 5.99949 7.7314 6.03707 7.48861C6.26921 5.99018 7.43984 4.81167 8.93663 4.56941C9.1792 4.53016 9.49768 4.52443 10.484 4.5211C11.4703 4.51777 11.7888 4.52135 12.0316 4.55897C13.53 4.79111 14.7086 5.9617 14.9508 7.45852C14.99 7.70106 14.9958 8.01956 14.9991 9.00588L15 9.25588C15.0014 9.67009 15.3383 10.0047 15.7525 10.0033C16.1667 10.0019 16.5014 9.66503 16.5 9.25082L16.4991 9.00082C16.496 8.07182 16.4944 7.60732 16.4316 7.21887C16.0855 5.08056 14.4018 3.40829 12.2613 3.07665C11.8724 3.0164 11.4079 3.01797 10.4789 3.02111C9.54992 3.02424 9.08542 3.02581 8.69693 3.08868C6.55869 3.43476 4.88636 5.11836 4.55479 7.25896C4.4945 7.64782 4.49607 8.11232 4.4992 9.04133L4.52621 17.0413C4.52934 17.9703 4.53091 18.4348 4.59382 18.8233C4.93984 20.9615 6.6235 22.6338 8.76403 22.9654C9.15293 23.0257 9.61743 23.0241 10.5464 23.021C11.4754 23.0179 11.9399 23.0163 12.3284 22.9534C14.4667 22.6074 16.139 20.9237 16.4706 18.7832C16.5308 18.3943 16.5293 17.9298 16.5261 17.0008L16.5253 16.7508C16.5239 16.3366 16.187 16.0019 15.7728 16.0033C15.3586 16.0047 15.0239 16.3416 15.0253 16.7558L15.0261 17.0058C15.0295 17.9921 15.0259 18.3106 14.9883 18.5535C14.7561 20.0519 13.5855 21.2304 12.0887 21.4727C11.8461 21.5119 11.5277 21.5177 10.5414 21.521C9.55507 21.5243 9.23655 21.5207 8.99372 21.4831C7.49533 21.251 6.31677 20.0804 6.07452 18.5836C6.0353 18.341 6.02953 18.0225 6.0262 17.0362Z" fill="#FF0000"/>
</svg>
