<svg width="21" height="21" viewBox="0 0 21 21" fill="none" xmlns="http://www.w3.org/2000/svg">
    <defs>
        <linearGradient id="paint0_linear_155_2143" x1="10.9235" y1="5.46181" x2="7.56238" y2="5.46181" gradientUnits="userSpaceOnUse">
            <stop offset="0.220925" stop-color="#9E9E9E" stop-opacity="0.12"/>
            <stop offset="0.236355" stop-color="#FEE440"/>
        </linearGradient>
    </defs>

    <path d="M9.34111 3.0778C9.65705 2.48296 10.5094 2.48296 10.8254 3.0778L12.469 6.17242C12.5904 6.4011 12.8105 6.561 13.0656 6.60585L16.5166 7.21273C17.18 7.32938 17.4433 8.14 16.9752 8.62428L14.54 11.1438C14.36 11.3299 14.276 11.5887 14.3121 11.8451L14.8014 15.3147C14.8954 15.9817 14.2058 16.4826 13.6006 16.1871L10.452 14.6497C10.2193 14.536 9.9472 14.536 9.71453 14.6497L6.56586 16.1871C5.96063 16.4826 5.27107 15.9817 5.36511 15.3147L5.85437 11.8451C5.89053 11.5887 5.80646 11.3299 5.62651 11.1438L3.19126 8.62428C2.72315 8.14 2.98655 7.32938 3.6499 7.21273L7.10096 6.60585C7.35598 6.561 7.57608 6.40109 7.69753 6.17242L9.34111 3.0778Z" fill="url(#paint0_linear_155_2143)"/>
</svg>
