<svg width="16" height="15" viewBox="0 0 16 15" fill="none" xmlns="http://www.w3.org/2000/svg">
    <path d="M15.47 7.34062C14.8819 5.91452 13.861 4.68123 12.5334 3.79317C11.2058 2.9051 9.62974 2.40121 8 2.34375C6.37026 2.40121 4.79419 2.9051 3.4666 3.79317C2.13901 4.68123 1.11808 5.91452 0.530001 7.34062C0.490285 7.44361 0.490285 7.55639 0.530001 7.65938C1.11808 9.08548 2.13901 10.3188 3.4666 11.2068C4.79419 12.0949 6.37026 12.5988 8 12.6562C9.62974 12.5988 11.2058 12.0949 12.5334 11.2068C13.861 10.3188 14.8819 9.08548 15.47 7.65938C15.5097 7.55639 15.5097 7.44361 15.47 7.34062ZM8 11.7188C5.35 11.7188 2.55 9.87656 1.535 7.5C2.55 5.12344 5.35 3.28125 8 3.28125C10.65 3.28125 13.45 5.12344 14.465 7.5C13.45 9.87656 10.65 11.7188 8 11.7188Z" fill="#9E9E9E"/>
    <path d="M8 4.6875C7.40666 4.6875 6.82664 4.85245 6.33329 5.16149C5.83994 5.47053 5.45543 5.90979 5.22836 6.4237C5.0013 6.93762 4.94189 7.50312 5.05765 8.04869C5.1734 8.59426 5.45912 9.0954 5.87868 9.48874C6.29824 9.88207 6.83279 10.1499 7.41473 10.2585C7.99667 10.367 8.59987 10.3113 9.14805 10.0984C9.69623 9.88554 10.1648 9.52505 10.4944 9.06254C10.8241 8.60003 11 8.05626 11 7.5C11 6.75408 10.6839 6.03871 10.1213 5.51126C9.55871 4.98382 8.79565 4.6875 8 4.6875ZM8 9.375C7.60444 9.375 7.21776 9.26503 6.88886 9.05901C6.55996 8.85298 6.30362 8.56014 6.15224 8.21753C6.00087 7.87492 5.96126 7.49792 6.03843 7.13421C6.1156 6.77049 6.30608 6.4364 6.58579 6.17417C6.86549 5.91195 7.22186 5.73337 7.60982 5.66103C7.99778 5.58868 8.39992 5.62581 8.76537 5.76773C9.13082 5.90964 9.44318 6.14996 9.66294 6.45831C9.8827 6.76665 10 7.12916 10 7.5C10 7.99728 9.78929 8.47419 9.41421 8.82582C9.03914 9.17746 8.53043 9.375 8 9.375Z" fill="#9E9E9E"/>
</svg>
