<svg width="25" height="24" viewBox="0 0 25 24" fill="none" xmlns="http://www.w3.org/2000/svg">
    <path d="M19.3684 10.6526C19.3684 14.9314 15.8998 18.4 11.6211 18.4C7.3423 18.4 3.87368 14.9314 3.87368 10.6526C3.87368 6.37389 7.3423 2.90527 11.6211 2.90527C15.8998 2.90527 19.3684 6.37389 19.3684 10.6526Z" fill="#FFBB0D"/>
    <path fill-rule="evenodd" clip-rule="evenodd" d="M19.9423 10.6527C19.9423 15.2484 16.2168 18.9739 11.6211 18.9739C7.02535 18.9739 3.29981 15.2484 3.29981 10.6527C3.29981 6.05697 7.02535 2.33142 11.6211 2.33142C16.2168 2.33142 19.9423 6.05697 19.9423 10.6527ZM11.6211 18.4C15.8998 18.4 19.3684 14.9314 19.3684 10.6527C19.3684 6.37392 15.8998 2.9053 11.6211 2.9053C7.3423 2.9053 3.87368 6.37392 3.87368 10.6527C3.87368 14.9314 7.3423 18.4 11.6211 18.4Z" fill="#E89B05"/>
    <path fill-rule="evenodd" clip-rule="evenodd" d="M4.44756 10.9396C4.28909 10.9396 4.16062 10.8111 4.16062 10.6526C4.16062 6.53235 7.50077 3.19221 11.6211 3.19221C11.7795 3.19221 11.908 3.32067 11.908 3.47915C11.908 3.63762 11.7795 3.76609 11.6211 3.76609C7.81772 3.76609 4.7345 6.8493 4.7345 10.6526C4.7345 10.8111 4.60604 10.9396 4.44756 10.9396Z" fill="#E8AA0A"/>
    <path fill-rule="evenodd" clip-rule="evenodd" d="M18.7945 10.3657C18.953 10.3657 19.0815 10.4942 19.0815 10.6527C19.0815 14.7729 15.7413 18.1131 11.6211 18.1131C11.4626 18.1131 11.3341 17.9846 11.3341 17.8262C11.3341 17.6677 11.4626 17.5392 11.6211 17.5392C15.4244 17.5392 18.5076 14.456 18.5076 10.6527C18.5076 10.4942 18.6361 10.3657 18.7945 10.3657Z" fill="#E8AA0A"/>
    <path d="M17.3598 10.6527C17.3598 13.8222 14.7905 16.3915 11.6211 16.3915C8.45161 16.3915 5.88226 13.8222 5.88226 10.6527C5.88226 7.48328 8.45161 4.91394 11.6211 4.91394C14.7905 4.91394 17.3598 7.48328 17.3598 10.6527Z" fill="#FFDD28"/>
    <path fill-rule="evenodd" clip-rule="evenodd" d="M17.9337 10.6526C17.9337 14.139 15.1074 16.9653 11.6211 16.9653C8.13466 16.9653 5.30838 14.139 5.30838 10.6526C5.30838 7.16624 8.13466 4.33997 11.6211 4.33997C15.1074 4.33997 17.9337 7.16624 17.9337 10.6526ZM11.6211 16.3914C14.7905 16.3914 17.3598 13.8221 17.3598 10.6526C17.3598 7.48319 14.7905 4.91384 11.6211 4.91384C8.45161 4.91384 5.88226 7.48319 5.88226 10.6526C5.88226 13.8221 8.45161 16.3914 11.6211 16.3914Z" fill="#E89B05"/>
    <path fill-rule="evenodd" clip-rule="evenodd" d="M11.6211 15.5306C14.3151 15.5306 16.499 13.3467 16.499 10.6526C16.499 10.4942 16.6275 10.3657 16.786 10.3657C16.9444 10.3657 17.0729 10.4942 17.0729 10.6526C17.0729 13.6636 14.632 16.1045 11.6211 16.1045C11.4626 16.1045 11.3341 15.976 11.3341 15.8176C11.3341 15.6591 11.4626 15.5306 11.6211 15.5306Z" fill="#ECC704"/>
    <path fill-rule="evenodd" clip-rule="evenodd" d="M11.6211 5.77468C8.92702 5.77468 6.74308 7.95863 6.74308 10.6527C6.74308 10.8111 6.61461 10.9396 6.45614 10.9396C6.29767 10.9396 6.1692 10.8111 6.1692 10.6527C6.1692 7.64168 8.61008 5.20081 11.6211 5.20081C11.7795 5.20081 11.908 5.32927 11.908 5.48775C11.908 5.64622 11.7795 5.77468 11.6211 5.77468Z" fill="#FFEF9C"/>
    <path d="M2.85118 18.2917L2.11208 16.8135C2.0316 16.6525 2.14865 16.4631 2.32863 16.4631L5.56847 16.4631C5.70219 16.4631 5.81058 16.5715 5.81058 16.7052L5.81058 20.0947C5.81058 20.2284 5.70219 20.3368 5.56847 20.3368L2.32863 20.3368C2.14865 20.3368 2.0316 20.1474 2.11208 19.9864L2.85118 18.5082C2.88526 18.4401 2.88526 18.3599 2.85118 18.2917Z" fill="#C52229"/>
    <path d="M20.391 18.2917L21.1301 16.8135C21.2106 16.6525 21.0936 16.4631 20.9136 16.4631L17.6737 16.4631C17.54 16.4631 17.4316 16.5715 17.4316 16.7052L17.4316 20.0947C17.4316 20.2284 17.54 20.3368 17.6737 20.3368L20.9136 20.3368C21.0936 20.3368 21.2106 20.1474 21.1301 19.9864L20.391 18.5082C20.357 18.4401 20.357 18.3599 20.391 18.2917Z" fill="#C52229"/>
    <path fill-rule="evenodd" clip-rule="evenodd" d="M2.36395 18.4001L1.67899 17.0301C1.43753 16.5472 1.7887 15.979 2.32863 15.979L5.56847 15.979C5.96961 15.979 6.29479 16.3042 6.29479 16.7053L6.29479 20.0948C6.29479 20.4959 5.96961 20.8211 5.56847 20.8211L2.32863 20.8211C1.7887 20.8211 1.43753 20.2529 1.67899 19.77L2.36395 18.4001ZM2.41795 18.508C2.418 18.5081 2.41804 18.5082 2.41809 18.5083L2.63464 18.4001L2.41809 18.5083L2.41795 18.508ZM20.8783 18.4001L21.5632 17.0301C21.8047 16.5472 21.4535 15.979 20.9136 15.979L17.6737 15.979C17.2726 15.979 16.9474 16.3042 16.9474 16.7053L16.9474 20.0948C16.9474 20.4959 17.2726 20.8211 17.6737 20.8211L20.9136 20.8211C21.4535 20.8211 21.8047 20.2529 21.5632 19.77L20.8783 18.4001ZM21.1301 16.8136L20.391 18.2918C20.357 18.3599 20.357 18.4402 20.391 18.5083L21.1301 19.9865C21.2106 20.1475 21.0936 20.3369 20.9136 20.3369L17.6737 20.3369C17.54 20.3369 17.4316 20.2285 17.4316 20.0948L17.4316 16.7053C17.4316 16.5716 17.54 16.4632 17.6737 16.4632L20.9136 16.4632C21.0936 16.4632 21.2106 16.6526 21.1301 16.8136ZM2.11209 16.8136L2.85118 18.2918C2.88526 18.3599 2.88526 18.4402 2.85118 18.5083L2.11209 19.9865C2.0316 20.1475 2.14865 20.3369 2.32863 20.3369L5.56847 20.3369C5.70219 20.3369 5.81058 20.2285 5.81058 20.0948L5.81058 16.7053C5.81058 16.5716 5.70219 16.4632 5.56847 16.4632L2.32863 16.4632C2.14865 16.4632 2.0316 16.6526 2.11209 16.8136Z" fill="#9B0F15"/>
    <path fill-rule="evenodd" clip-rule="evenodd" d="M2.45839 16.6821C2.50272 16.6118 2.58006 16.5691 2.66321 16.5691H3.69216C3.82587 16.5691 3.93426 16.6775 3.93426 16.8112C3.93426 16.9449 3.82587 17.0533 3.69216 17.0533H3.04737L3.54741 18.0988C3.6051 18.2195 3.55408 18.364 3.43346 18.4217C3.31283 18.4794 3.16828 18.4284 3.11059 18.3078L2.4448 16.9157C2.40892 16.8406 2.41405 16.7525 2.45839 16.6821Z" fill="#DF3840"/>
    <path d="M18.4001 19.1263L18.4001 15.7369C18.4001 15.6031 18.2917 15.4948 18.1579 15.4948L5.08426 15.4948C4.95055 15.4948 4.84216 15.6031 4.84216 15.7369L4.84216 19.1263C4.84216 19.26 4.95055 19.3684 5.08426 19.3684L18.1579 19.3684C18.2917 19.3684 18.4001 19.26 18.4001 19.1263Z" fill="#F1333B"/>
    <path fill-rule="evenodd" clip-rule="evenodd" d="M18.8843 15.7368L18.8843 19.1263C18.8843 19.5274 18.5591 19.8526 18.1579 19.8526L5.08426 19.8526C4.68313 19.8526 4.35795 19.5274 4.35795 19.1263L4.35795 15.7368C4.35795 15.3357 4.68313 15.0105 5.08426 15.0105L18.1579 15.0105C18.5591 15.0105 18.8843 15.3357 18.8843 15.7368ZM18.4001 15.7368L18.4001 19.1263C18.4001 19.26 18.2917 19.3684 18.1579 19.3684L5.08426 19.3684C4.95055 19.3684 4.84216 19.26 4.84216 19.1263L4.84216 15.7368C4.84216 15.6031 4.95055 15.4947 5.08426 15.4947L18.1579 15.4947C18.2917 15.4947 18.4001 15.6031 18.4001 15.7368Z" fill="#9B0F15"/>
    <path d="M17.7312 17.5235C17.5941 17.5235 17.483 17.4151 17.483 17.2814C17.483 17.1476 17.5941 17.0392 17.7312 17.0392C17.8683 17.0392 17.9794 17.1476 17.9794 17.2814C17.9794 17.4151 17.8683 17.5235 17.7312 17.5235Z" fill="#DB1B24"/>
    <path d="M16.7867 17.4266C16.6162 17.4266 16.4779 17.2917 16.4779 17.1253C16.4779 16.959 16.6162 16.8241 16.7867 16.8241C16.9572 16.8241 17.0955 16.959 17.0955 17.1253C17.0955 17.2917 16.9572 17.4266 16.7867 17.4266Z" fill="#DB1B24"/>
    <path d="M17.2075 18.1153C17.1222 18.1153 17.0531 18.0479 17.0531 17.9647C17.0531 17.8815 17.1222 17.8141 17.2075 17.8141C17.2927 17.8141 17.3619 17.8815 17.3619 17.9647C17.3619 18.0479 17.2927 18.1153 17.2075 18.1153Z" fill="#DB1B24"/>
    <path d="M16.9411 16.5223C16.8558 16.5223 16.7867 16.4549 16.7867 16.3717C16.7867 16.2885 16.8558 16.2211 16.9411 16.2211C17.0264 16.2211 17.0955 16.2885 17.0955 16.3717C17.0955 16.4549 17.0264 16.5223 16.9411 16.5223Z" fill="#DB1B24"/>
    <path d="M16.1298 17.9648C16.0445 17.9648 15.9754 17.8974 15.9754 17.8142C15.9754 17.731 16.0445 17.6636 16.1298 17.6636C16.2151 17.6636 16.2842 17.731 16.2842 17.8142C16.2842 17.8974 16.2151 17.9648 16.1298 17.9648Z" fill="#DB1B24"/>
    <path d="M15.9754 17.1898C15.8901 17.1898 15.821 17.1224 15.821 17.0392C15.821 16.956 15.8901 16.8885 15.9754 16.8885C16.0607 16.8885 16.1298 16.956 16.1298 17.0392C16.1298 17.1224 16.0607 17.1898 15.9754 17.1898Z" fill="#DB1B24"/>
    <path d="M14.9229 18.937C14.8376 18.937 14.7685 18.8696 14.7685 18.7864C14.7685 18.7032 14.8376 18.6357 14.9229 18.6357C15.0081 18.6357 15.0773 18.7032 15.0773 18.7864C15.0773 18.8696 15.0081 18.937 14.9229 18.937Z" fill="#DB1B24"/>
    <path d="M17.9946 18.362C17.9093 18.362 17.8402 18.2946 17.8402 18.2114C17.8402 18.1282 17.9093 18.0608 17.9946 18.0608C18.0798 18.0608 18.149 18.1282 18.149 18.2114C18.149 18.2946 18.0798 18.362 17.9946 18.362Z" fill="#DB1B24"/>
    <path d="M16.5354 18.6919C16.3967 18.6919 16.2842 18.5822 16.2842 18.4468C16.2842 18.3114 16.3967 18.2017 16.5354 18.2017C16.6742 18.2017 16.7867 18.3114 16.7867 18.4468C16.7867 18.5822 16.6742 18.6919 16.5354 18.6919Z" fill="#DB1B24"/>
    <path d="M17.6131 18.937C17.4744 18.937 17.3619 18.8273 17.3619 18.6919C17.3619 18.5565 17.4744 18.4468 17.6131 18.4468C17.7519 18.4468 17.8644 18.5565 17.8644 18.6919C17.8644 18.8273 17.7519 18.937 17.6131 18.937Z" fill="#DB1B24"/>
    <path d="M15.4154 18.455C15.2766 18.455 15.1641 18.3452 15.1641 18.2099C15.1641 18.0745 15.2766 17.9647 15.4154 17.9647C15.5541 17.9647 15.6666 18.0745 15.6666 18.2099C15.6666 18.3452 15.5541 18.455 15.4154 18.455Z" fill="#DB1B24"/>
    <path d="M15.821 19.0115C15.7357 19.0115 15.6666 18.944 15.6666 18.8608C15.6666 18.7776 15.7357 18.7102 15.821 18.7102C15.9063 18.7102 15.9754 18.7776 15.9754 18.8608C15.9754 18.944 15.9063 19.0115 15.821 19.0115Z" fill="#DB1B24"/>
    <path fill-rule="evenodd" clip-rule="evenodd" d="M4.99347 15.8428C4.99347 15.7091 5.10187 15.6007 5.23558 15.6007H14.3145C14.4482 15.6007 14.5566 15.7091 14.5566 15.8428C14.5566 15.9765 14.4482 16.0849 14.3145 16.0849H5.47768V17.7797C5.47768 17.9134 5.36929 18.0218 5.23558 18.0218C5.10187 18.0218 4.99347 17.9134 4.99347 17.7797V15.8428Z" fill="#FE666D"/>
    <path d="M12.2417 12.7329H11.361V9.3382L10.3097 9.66426V8.94814L12.1472 8.28992H12.2417V12.7329Z" fill="#FFEF9C"/>
    <path fill-rule="evenodd" clip-rule="evenodd" d="M12.7618 12.733C12.7618 13.0202 12.5289 13.2531 12.2417 13.2531H11.361C11.0738 13.2531 10.8409 13.0202 10.8409 12.733V10.0441L10.4637 10.1611C10.3059 10.21 10.1342 10.181 10.0012 10.083C9.86813 9.98499 9.7896 9.82957 9.7896 9.66432V8.9482C9.7896 8.72859 9.92755 8.53264 10.1343 8.45859L11.9718 7.80036C12.0281 7.7802 12.0874 7.7699 12.1472 7.7699H12.2417C12.5289 7.7699 12.7618 8.00274 12.7618 8.28998V12.733ZM11.361 9.33826V12.733H12.2417V8.28998H12.1472L10.3097 8.9482V9.66432L11.361 9.33826Z" fill="#E89B05"/>
</svg>
