<svg width="22" height="22" viewBox="0 0 22 22" fill="none" xmlns="http://www.w3.org/2000/svg">
    <path d="M10.1905 3.3576C10.5352 2.70868 11.4651 2.70868 11.8097 3.3576L13.6027 6.73355C13.7352 6.98302 13.9753 7.15746 14.2536 7.20638L18.0183 7.86843C18.742 7.99569 19.0293 8.88 18.5186 9.40831L15.862 12.1568C15.6657 12.3599 15.574 12.6422 15.6134 12.9219L16.1472 16.707C16.2498 17.4345 15.4975 17.9811 14.8373 17.6587L11.4024 15.9814C11.1485 15.8574 10.8517 15.8574 10.5979 15.9814L7.16298 17.6587C6.50272 17.9811 5.75048 17.4345 5.85307 16.707L6.38681 12.9219C6.42626 12.6422 6.33454 12.3599 6.13823 12.1568L3.48159 9.40831C2.97094 8.88 3.25827 7.99569 3.98194 7.86843L7.74672 7.20638C8.02492 7.15746 8.26503 6.98301 8.39753 6.73355L10.1905 3.3576Z" fill="#FEE440"/>
</svg>
