<svg width="25" height="24" viewBox="0 0 25 24" fill="none" xmlns="http://www.w3.org/2000/svg">
    <path d="M20.2105 11C20.2105 15.4183 16.5911 19 12.1263 19C7.66153 19 4.0421 15.4183 4.0421 11C4.0421 6.58172 7.66153 3 12.1263 3C16.5911 3 20.2105 6.58172 20.2105 11Z" fill="#DCA16A"/>
    <path fill-rule="evenodd" clip-rule="evenodd" d="M20.8094 10.9999C20.8094 15.7455 16.9218 19.5925 12.1263 19.5925C7.3308 19.5925 3.44327 15.7455 3.44327 10.9999C3.44327 6.25438 7.3308 2.40735 12.1263 2.40735C16.9218 2.40735 20.8094 6.25438 20.8094 10.9999ZM12.1263 18.9999C16.5911 18.9999 20.2105 15.4182 20.2105 10.9999C20.2105 6.58166 16.5911 2.99994 12.1263 2.99994C7.66153 2.99994 4.0421 6.58166 4.0421 10.9999C4.0421 15.4182 7.66153 18.9999 12.1263 18.9999Z" fill="#C38144"/>
    <path fill-rule="evenodd" clip-rule="evenodd" d="M4.64093 11.2963C4.47557 11.2963 4.34152 11.1636 4.34152 11C4.34152 6.74533 7.82689 3.29626 12.1263 3.29626C12.2917 3.29626 12.4257 3.42892 12.4257 3.59256C12.4257 3.7562 12.2917 3.88886 12.1263 3.88886C8.15762 3.88886 4.94035 7.07261 4.94035 11C4.94035 11.1636 4.8063 11.2963 4.64093 11.2963Z" fill="#F0B57F"/>
    <path fill-rule="evenodd" clip-rule="evenodd" d="M19.6117 10.7037C19.7771 10.7037 19.9111 10.8364 19.9111 11C19.9111 15.2547 16.4257 18.7037 12.1263 18.7037C11.961 18.7037 11.8269 18.5711 11.8269 18.4074C11.8269 18.2438 11.961 18.1111 12.1263 18.1111C16.095 18.1111 19.3123 14.9274 19.3123 11C19.3123 10.8364 19.4463 10.7037 19.6117 10.7037Z" fill="#CF945D"/>
    <path d="M18.1146 11C18.1146 14.2728 15.4336 16.9259 12.1263 16.9259C8.81906 16.9259 6.13801 14.2728 6.13801 11C6.13801 7.72722 8.81906 5.0741 12.1263 5.0741C15.4336 5.0741 18.1146 7.72722 18.1146 11Z" fill="#F7BA82"/>
    <path fill-rule="evenodd" clip-rule="evenodd" d="M18.7134 11C18.7134 14.6 15.7643 17.5185 12.1263 17.5185C8.48834 17.5185 5.53918 14.6 5.53918 11C5.53918 7.39989 8.48834 4.48145 12.1263 4.48145C15.7643 4.48145 18.7134 7.39989 18.7134 11ZM12.1263 16.9259C15.4336 16.9259 18.1146 14.2728 18.1146 11C18.1146 7.72717 15.4336 5.07404 12.1263 5.07404C8.81906 5.07404 6.13801 7.72717 6.13801 11C6.13801 14.2728 8.81906 16.9259 12.1263 16.9259Z" fill="#C38144"/>
    <path fill-rule="evenodd" clip-rule="evenodd" d="M12.1263 16.037C14.9375 16.037 17.2164 13.7819 17.2164 11C17.2164 10.8364 17.3504 10.7037 17.5158 10.7037C17.6812 10.7037 17.8152 10.8364 17.8152 11C17.8152 14.1092 15.2682 16.6296 12.1263 16.6296C11.961 16.6296 11.8269 16.497 11.8269 16.3333C11.8269 16.1697 11.961 16.037 12.1263 16.037Z" fill="#E6A66C"/>
    <path fill-rule="evenodd" clip-rule="evenodd" d="M12.1263 5.96295C9.31515 5.96295 7.03626 8.21811 7.03626 11C7.03626 11.1636 6.9022 11.2963 6.73684 11.2963C6.57148 11.2963 6.43743 11.1636 6.43743 11C6.43743 7.89083 8.98443 5.37036 12.1263 5.37036C12.2917 5.37036 12.4257 5.50302 12.4257 5.66666C12.4257 5.8303 12.2917 5.96295 12.1263 5.96295Z" fill="#FFD5AE"/>
    <path d="M2.97514 18.8882L2.20391 17.3618C2.11992 17.1956 2.24207 17 2.42987 17L5.81058 17C5.9501 17 6.06321 17.1119 6.06321 17.25L6.06321 20.75C6.06321 20.8881 5.9501 21 5.81058 21L2.42987 21C2.24207 21 2.11992 20.8044 2.20391 20.6382L2.97514 19.1118C3.0107 19.0414 3.0107 18.9586 2.97514 18.8882Z" fill="#C52229"/>
    <path d="M21.2776 18.8882L22.0488 17.3618C22.1328 17.1956 22.0107 17 21.8229 17L18.4422 17C18.3026 17 18.1895 17.1119 18.1895 17.25L18.1895 20.75C18.1895 20.8881 18.3026 21 18.4422 21L21.8229 21C22.0107 21 22.1328 20.8044 22.0488 20.6382L21.2776 19.1118C21.242 19.0414 21.242 18.9586 21.2776 18.8882Z" fill="#C52229"/>
    <path fill-rule="evenodd" clip-rule="evenodd" d="M2.46673 19L1.75199 17.5854C1.50003 17.0867 1.86646 16.5 2.42987 16.5L5.81058 16.5C6.22915 16.5 6.56847 16.8358 6.56847 17.25L6.56847 20.75C6.56847 21.1642 6.22915 21.5 5.81058 21.5L2.42987 21.5C1.86646 21.5 1.50003 20.9133 1.75199 20.4146L2.46673 19ZM2.52307 19.1115C2.52312 19.1116 2.52317 19.1117 2.52322 19.1118L2.74918 19L2.52322 19.1118L2.52307 19.1115ZM21.786 19L22.5007 17.5854C22.7527 17.0867 22.3863 16.5 21.8229 16.5L18.4422 16.5C18.0236 16.5 17.6843 16.8358 17.6843 17.25L17.6843 20.75C17.6843 21.1642 18.0236 21.5 18.4422 21.5L21.8229 21.5C22.3863 21.5 22.7527 20.9133 22.5007 20.4146L21.786 19ZM22.0488 17.3618L21.2776 18.8882C21.242 18.9586 21.242 19.0414 21.2776 19.1118L22.0488 20.6382C22.1328 20.8044 22.0107 21 21.8229 21L18.4422 21C18.3026 21 18.1895 20.8881 18.1895 20.75L18.1895 17.25C18.1895 17.1119 18.3026 17 18.4422 17L21.8229 17C22.0107 17 22.1328 17.1956 22.0488 17.3618ZM2.20391 17.3618L2.97514 18.8882C3.0107 18.9586 3.0107 19.0414 2.97514 19.1118L2.20391 20.6382C2.11992 20.8044 2.24207 21 2.42987 21L5.81058 21C5.9501 21 6.06321 20.8881 6.06321 20.75L6.06321 17.25C6.06321 17.1119 5.9501 17 5.81058 17L2.42987 17C2.24207 17 2.11992 17.1956 2.20391 17.3618Z" fill="#9B0F15"/>
    <path fill-rule="evenodd" clip-rule="evenodd" d="M2.56527 17.2261C2.61153 17.1534 2.69223 17.1094 2.779 17.1094H3.85268C3.99221 17.1094 4.10532 17.2213 4.10532 17.3594C4.10532 17.4974 3.99221 17.6094 3.85268 17.6094H3.17986L3.70164 18.689C3.76184 18.8136 3.70861 18.9628 3.58274 19.0224C3.45687 19.082 3.30603 19.0293 3.24583 18.9047L2.55109 17.4672C2.51366 17.3898 2.51901 17.2987 2.56527 17.2261Z" fill="#DF3840"/>
    <path d="M19.2001 19.75L19.2001 16.25C19.2001 16.1119 19.0869 16 18.9474 16L5.30532 16C5.16579 16 5.05268 16.1119 5.05268 16.25L5.05268 19.75C5.05268 19.8881 5.16579 20 5.30532 20L18.9474 20C19.0869 20 19.2001 19.8881 19.2001 19.75Z" fill="#F1333B"/>
    <path fill-rule="evenodd" clip-rule="evenodd" d="M19.7053 16.25L19.7053 19.75C19.7053 20.1642 19.366 20.5 18.9474 20.5L5.30531 20.5C4.88674 20.5 4.54742 20.1642 4.54742 19.75L4.54742 16.25C4.54742 15.8358 4.88674 15.5 5.30532 15.5L18.9474 15.5C19.366 15.5 19.7053 15.8358 19.7053 16.25ZM19.2001 16.25L19.2001 19.75C19.2001 19.8881 19.0869 20 18.9474 20L5.30531 20C5.16579 20 5.05268 19.8881 5.05268 19.75L5.05268 16.25C5.05268 16.1119 5.16579 16 5.30531 16L18.9474 16C19.0869 16 19.2001 16.1119 19.2001 16.25Z" fill="#9B0F15"/>
    <path d="M18.5021 18.0949C18.3591 18.0949 18.2431 17.9829 18.2431 17.8448C18.2431 17.7067 18.3591 17.5947 18.5021 17.5947C18.6452 17.5947 18.7611 17.7067 18.7611 17.8448C18.7611 17.9829 18.6452 18.0949 18.5021 18.0949Z" fill="#DB1B24"/>
    <path d="M17.5166 17.9949C17.3386 17.9949 17.1943 17.8557 17.1943 17.6839C17.1943 17.5121 17.3386 17.3728 17.5166 17.3728C17.6945 17.3728 17.8388 17.5121 17.8388 17.6839C17.8388 17.8557 17.6945 17.9949 17.5166 17.9949Z" fill="#DB1B24"/>
    <path d="M17.9556 18.7061C17.8667 18.7061 17.7945 18.6365 17.7945 18.5506C17.7945 18.4647 17.8667 18.395 17.9556 18.395C18.0446 18.395 18.1167 18.4647 18.1167 18.5506C18.1167 18.6365 18.0446 18.7061 17.9556 18.7061Z" fill="#DB1B24"/>
    <path d="M17.6777 17.0611C17.5887 17.0611 17.5166 16.9914 17.5166 16.9055C17.5166 16.8196 17.5887 16.75 17.6777 16.75C17.7666 16.75 17.8388 16.8196 17.8388 16.9055C17.8388 16.9914 17.7666 17.0611 17.6777 17.0611Z" fill="#DB1B24"/>
    <path d="M16.8311 18.5506C16.7421 18.5506 16.67 18.4809 16.67 18.395C16.67 18.3091 16.7421 18.2395 16.8311 18.2395C16.9201 18.2395 16.9922 18.3091 16.9922 18.395C16.9922 18.4809 16.9201 18.5506 16.8311 18.5506Z" fill="#DB1B24"/>
    <path d="M16.67 17.7503C16.581 17.7503 16.5089 17.6806 16.5089 17.5947C16.5089 17.5088 16.581 17.4392 16.67 17.4392C16.759 17.4392 16.8311 17.5088 16.8311 17.5947C16.8311 17.6806 16.759 17.7503 16.67 17.7503Z" fill="#DB1B24"/>
    <path d="M15.5717 19.5545C15.4827 19.5545 15.4106 19.4848 15.4106 19.3989C15.4106 19.313 15.4827 19.2434 15.5717 19.2434C15.6607 19.2434 15.7328 19.313 15.7328 19.3989C15.7328 19.4848 15.6607 19.5545 15.5717 19.5545Z" fill="#DB1B24"/>
    <path d="M18.7769 18.9607C18.688 18.9607 18.6158 18.8911 18.6158 18.8052C18.6158 18.7193 18.688 18.6497 18.7769 18.6497C18.8659 18.6497 18.938 18.7193 18.938 18.8052C18.938 18.8911 18.8659 18.9607 18.7769 18.9607Z" fill="#DB1B24"/>
    <path d="M17.2544 19.3014C17.1096 19.3014 16.9922 19.1881 16.9922 19.0483C16.9922 18.9085 17.1096 18.7952 17.2544 18.7952C17.3992 18.7952 17.5166 18.9085 17.5166 19.0483C17.5166 19.1881 17.3992 19.3014 17.2544 19.3014Z" fill="#DB1B24"/>
    <path d="M18.3789 19.5545C18.2341 19.5545 18.1167 19.4411 18.1167 19.3013C18.1167 19.1615 18.2341 19.0482 18.3789 19.0482C18.5237 19.0482 18.6411 19.1615 18.6411 19.3013C18.6411 19.4411 18.5237 19.5545 18.3789 19.5545Z" fill="#DB1B24"/>
    <path d="M16.0856 19.0568C15.9408 19.0568 15.8234 18.9435 15.8234 18.8037C15.8234 18.6639 15.9408 18.5505 16.0856 18.5505C16.2304 18.5505 16.3478 18.6639 16.3478 18.8037C16.3478 18.9435 16.2304 19.0568 16.0856 19.0568Z" fill="#DB1B24"/>
    <path d="M16.5089 19.6314C16.4199 19.6314 16.3478 19.5617 16.3478 19.4758C16.3478 19.3899 16.4199 19.3203 16.5089 19.3203C16.5979 19.3203 16.67 19.3899 16.67 19.4758C16.67 19.5617 16.5979 19.6314 16.5089 19.6314Z" fill="#DB1B24"/>
    <path fill-rule="evenodd" clip-rule="evenodd" d="M5.21058 16.3594C5.21058 16.2213 5.32369 16.1094 5.46321 16.1094H14.9369C15.0764 16.1094 15.1895 16.2213 15.1895 16.3594C15.1895 16.4974 15.0764 16.6094 14.9369 16.6094H5.71584V18.3594C5.71584 18.4974 5.60273 18.6094 5.46321 18.6094C5.32369 18.6094 5.21058 18.4974 5.21058 18.3594V16.3594Z" fill="#FE666D"/>
    <path d="M11.4766 10.4545H11.9663C12.1994 10.4545 12.3722 10.3968 12.4846 10.2814C12.5969 10.166 12.6531 10.0129 12.6531 9.82201C12.6531 9.6374 12.5969 9.4937 12.4846 9.39091C12.3743 9.28812 12.2217 9.23672 12.0267 9.23672C11.8507 9.23672 11.7034 9.28497 11.5847 9.38147C11.466 9.47587 11.4066 9.59964 11.4066 9.75278H10.4876C10.4876 9.51363 10.5523 9.29966 10.6816 9.11085C10.813 8.91995 10.9953 8.77101 11.2285 8.66402C11.4638 8.55703 11.7225 8.50354 12.0044 8.50354C12.4941 8.50354 12.8778 8.61997 13.1555 8.85282C13.4332 9.08358 13.5721 9.40245 13.5721 9.80942C13.5721 10.0192 13.5074 10.2122 13.3781 10.3884C13.2488 10.5646 13.0792 10.6999 12.8693 10.7943C13.1301 10.8866 13.324 11.0251 13.4512 11.2097C13.5805 11.3943 13.6452 11.6125 13.6452 11.8642C13.6452 12.2712 13.4947 12.5974 13.1937 12.8428C12.8948 13.0883 12.4983 13.211 12.0044 13.211C11.5423 13.211 11.1639 13.0904 10.8692 12.8491C10.5767 12.6079 10.4304 12.289 10.4304 11.8925H11.3494C11.3494 12.0646 11.414 12.2051 11.5433 12.3142C11.6748 12.4233 11.8359 12.4778 12.0267 12.4778C12.245 12.4778 12.4157 12.4212 12.5386 12.3079C12.6637 12.1925 12.7262 12.0404 12.7262 11.8516C12.7262 11.3943 12.4718 11.1656 11.9631 11.1656H11.4766V10.4545Z" fill="#FFD5AE"/>
    <path fill-rule="evenodd" clip-rule="evenodd" d="M10.9599 10.2899H10.4876C10.1879 10.2899 9.94495 10.0494 9.94495 9.75283C9.94495 9.41177 10.0391 9.09178 10.2324 8.8096L10.2331 8.80852C10.4252 8.5295 10.6874 8.32039 11.0003 8.17685L11.002 8.17608C11.3145 8.03399 11.6513 7.96655 12.0044 7.96655C12.5775 7.96655 13.1004 8.10326 13.5054 8.44237C13.9226 8.78951 14.1148 9.26808 14.1148 9.80947C14.1148 10.1372 14.0111 10.4398 13.8172 10.704C13.8047 10.7211 13.7919 10.738 13.7788 10.7545C13.8215 10.8017 13.8614 10.852 13.8984 10.9055C14.0973 11.1902 14.1879 11.5176 14.1879 11.8643C14.1879 12.4213 13.9728 12.9031 13.5395 13.2567C13.1193 13.6015 12.5894 13.7481 12.0044 13.7481C11.4433 13.7481 10.9344 13.5996 10.5233 13.263L10.5218 13.2618C10.0983 12.9125 9.88771 12.4389 9.88771 11.8926C9.88771 11.596 10.1307 11.3556 10.4304 11.3556H10.9688C10.9462 11.2965 10.9339 11.2325 10.9339 11.1657V10.4545C10.9339 10.3971 10.943 10.3418 10.9599 10.2899ZM11.8572 11.7027C11.8797 11.7618 11.8921 11.8257 11.8921 11.8926C11.8921 11.8971 11.8923 11.9005 11.8925 11.903C11.8929 11.9034 11.8934 11.9038 11.8939 11.9043C11.9165 11.9226 11.9503 11.9408 12.0267 11.9408C12.0893 11.9408 12.1265 11.9326 12.1458 11.9262C12.1619 11.9209 12.1672 11.9164 12.1686 11.9151M11.8572 11.7027H11.9631C12.098 11.7027 12.1529 11.7257 12.1679 11.7336C12.1683 11.7345 12.1686 11.7354 12.1691 11.7366C12.1741 11.7503 12.1835 11.7852 12.1835 11.8517C12.1835 11.887 12.1778 11.9021 12.1767 11.9049C12.1759 11.9067 12.1754 11.9076 12.1749 11.9083C12.1744 11.9091 12.1725 11.9115 12.1686 11.9151M13.1937 12.8429C13.4947 12.5974 13.6452 12.2712 13.6452 11.8643C13.6452 11.6125 13.5805 11.3944 13.4512 11.2098C13.4303 11.1794 13.4075 11.1502 13.383 11.1223C13.2584 10.9808 13.0871 10.8715 12.8693 10.7944C13.0656 10.7061 13.2267 10.582 13.3525 10.4221C13.3612 10.4111 13.3697 10.3999 13.3781 10.3885C13.5074 10.2122 13.5721 10.0193 13.5721 9.80947C13.5721 9.4025 13.4332 9.08363 13.1555 8.85287C12.8778 8.62002 12.4941 8.50359 12.0044 8.50359C11.7225 8.50359 11.4638 8.55708 11.2285 8.66407C10.9953 8.77106 10.813 8.92 10.6816 9.1109C10.6582 9.14504 10.637 9.18001 10.6178 9.21579C10.531 9.37791 10.4876 9.55693 10.4876 9.75283H11.4066C11.4066 9.59969 11.466 9.47592 11.5847 9.38152C11.7034 9.28502 11.8507 9.23677 12.0267 9.23677C12.2217 9.23677 12.3743 9.28817 12.4846 9.39096C12.5969 9.49375 12.6531 9.63745 12.6531 9.82206C12.6531 10.013 12.5969 10.1661 12.4846 10.2815C12.3722 10.3969 12.1994 10.4545 11.9663 10.4545H11.4766V11.1657H11.9631C12.4718 11.1657 12.7262 11.3944 12.7262 11.8517C12.7262 12.0405 12.6637 12.1926 12.5386 12.308C12.4157 12.4212 12.245 12.4779 12.0267 12.4779C11.8359 12.4779 11.6748 12.4233 11.5433 12.3142C11.414 12.2052 11.3494 12.0646 11.3494 11.8926H10.4304C10.4304 12.091 10.467 12.2701 10.5403 12.4296C10.6135 12.5888 10.7231 12.7287 10.8692 12.8492C11.1639 13.0904 11.5423 13.2111 12.0044 13.2111C12.4983 13.2111 12.8948 13.0883 13.1937 12.8429ZM11.9233 9.91751C11.937 9.87542 11.9456 9.83106 11.9483 9.78515C11.9627 9.7793 11.9864 9.77381 12.0267 9.77381C12.0699 9.77381 12.0954 9.77878 12.1077 9.78223C12.1091 9.79066 12.1104 9.80361 12.1104 9.82206C12.1104 9.86553 12.104 9.88814 12.1008 9.89684C12.1001 9.89889 12.0994 9.90054 12.0987 9.90191C12.0982 9.90208 12.0977 9.90225 12.0972 9.90243C12.0798 9.90823 12.0395 9.91751 11.9663 9.91751H11.9233Z" fill="#C28044"/>
</svg>
