<svg width="24" height="24" viewBox="0 0 24 24" fill="none" xmlns="http://www.w3.org/2000/svg">
    <path d="M20 11C20 15.4183 16.4183 19 12 19C7.58172 19 4 15.4183 4 11C4 6.58172 7.58172 3 12 3C16.4183 3 20 6.58172 20 11Z" fill="#BCCCD2"/>
    <path fill-rule="evenodd" clip-rule="evenodd" d="M20.5926 11.0001C20.5926 15.7456 16.7456 19.5927 12 19.5927C7.25444 19.5927 3.4074 15.7456 3.4074 11.0001C3.4074 6.25451 7.25444 2.40747 12 2.40747C16.7456 2.40747 20.5926 6.25451 20.5926 11.0001ZM12 19.0001C16.4183 19.0001 20 15.4183 20 11.0001C20 6.58179 16.4183 3.00006 12 3.00006C7.58172 3.00006 4 6.58179 4 11.0001C4 15.4183 7.58172 19.0001 12 19.0001Z" fill="#81A5B0"/>
    <path fill-rule="evenodd" clip-rule="evenodd" d="M4.59259 11.2963C4.42895 11.2963 4.29629 11.1636 4.29629 11C4.29629 6.74533 7.74536 3.29626 12 3.29626C12.1636 3.29626 12.2963 3.42892 12.2963 3.59256C12.2963 3.7562 12.1636 3.88886 12 3.88886C8.07264 3.88886 4.88888 7.07261 4.88888 11C4.88888 11.1636 4.75623 11.2963 4.59259 11.2963Z" fill="#D0DEE3"/>
    <path fill-rule="evenodd" clip-rule="evenodd" d="M19.4074 10.7037C19.571 10.7037 19.7037 10.8364 19.7037 11C19.7037 15.2547 16.2546 18.7037 12 18.7037C11.8364 18.7037 11.7037 18.5711 11.7037 18.4074C11.7037 18.2438 11.8364 18.1111 12 18.1111C15.9274 18.1111 19.1111 14.9274 19.1111 11C19.1111 10.8364 19.2438 10.7037 19.4074 10.7037Z" fill="#A2B9C1"/>
    <path d="M17.9259 11C17.9259 14.2728 15.2728 16.9259 12 16.9259C8.7272 16.9259 6.07407 14.2728 6.07407 11C6.07407 7.72722 8.7272 5.0741 12 5.0741C15.2728 5.0741 17.9259 7.72722 17.9259 11Z" fill="#C7D4D8"/>
    <path fill-rule="evenodd" clip-rule="evenodd" d="M18.5185 11C18.5185 14.6 15.6001 17.5185 12 17.5185C8.39992 17.5185 5.48148 14.6 5.48148 11C5.48148 7.39989 8.39992 4.48145 12 4.48145C15.6001 4.48145 18.5185 7.39989 18.5185 11ZM12 16.9259C15.2728 16.9259 17.9259 14.2728 17.9259 11C17.9259 7.72717 15.2728 5.07404 12 5.07404C8.7272 5.07404 6.07407 7.72717 6.07407 11C6.07407 14.2728 8.7272 16.9259 12 16.9259Z" fill="#81A5B0"/>
    <path fill-rule="evenodd" clip-rule="evenodd" d="M12 16.037C14.7819 16.037 17.037 13.7819 17.037 11C17.037 10.8364 17.1697 10.7037 17.3333 10.7037C17.497 10.7037 17.6296 10.8364 17.6296 11C17.6296 14.1092 15.1092 16.6296 12 16.6296C11.8364 16.6296 11.7037 16.497 11.7037 16.3333C11.7037 16.1697 11.8364 16.037 12 16.037Z" fill="#B5C3C8"/>
    <path fill-rule="evenodd" clip-rule="evenodd" d="M12 5.96295C9.21812 5.96295 6.96296 8.21811 6.96296 11C6.96296 11.1636 6.8303 11.2963 6.66666 11.2963C6.50302 11.2963 6.37037 11.1636 6.37037 11C6.37037 7.89083 8.89084 5.37036 12 5.37036C12.1636 5.37036 12.2963 5.50302 12.2963 5.66666C12.2963 5.8303 12.1636 5.96295 12 5.96295Z" fill="#D9EAEF"/>
    <path d="M2.94415 18.8882L2.18095 17.3618C2.09784 17.1956 2.21871 17 2.40456 17L5.75005 17C5.88812 17 6.00005 17.1119 6.00005 17.25L6.00005 20.75C6.00005 20.8881 5.88812 21 5.75005 21L2.40456 21C2.21871 21 2.09784 20.8044 2.18095 20.6382L2.94415 19.1118C2.97934 19.0414 2.97934 18.9586 2.94415 18.8882Z" fill="#C52229"/>
    <path d="M21.0559 18.8882L21.8191 17.3618C21.9023 17.1956 21.7814 17 21.5955 17L18.25 17C18.112 17 18 17.1119 18 17.25L18 20.75C18 20.8881 18.112 21 18.25 21L21.5955 21C21.7814 21 21.9023 20.8044 21.8191 20.6382L21.0559 19.1118C21.0208 19.0414 21.0208 18.9586 21.0559 18.8882Z" fill="#C52229"/>
    <path fill-rule="evenodd" clip-rule="evenodd" d="M2.44103 19L1.73374 17.5854C1.4844 17.0867 1.84702 16.5 2.40456 16.5L5.75005 16.5C6.16427 16.5 6.50005 16.8358 6.50005 17.25L6.50005 20.75C6.50005 21.1642 6.16426 21.5 5.75005 21.5L2.40456 21.5C1.84702 21.5 1.4844 20.9133 1.73374 20.4146L2.44103 19ZM2.49679 19.1115C2.49684 19.1116 2.49689 19.1117 2.49694 19.1118L2.72055 19L2.49693 19.1118L2.49679 19.1115ZM21.5591 19L22.2664 17.5854C22.5157 17.0867 22.1531 16.5 21.5955 16.5L18.2501 16.5C17.8358 16.5 17.5001 16.8358 17.5001 17.25L17.5001 20.75C17.5001 21.1642 17.8358 21.5 18.2501 21.5L21.5955 21.5C22.1531 21.5 22.5157 20.9133 22.2664 20.4146L21.5591 19ZM21.8191 17.3618L21.056 18.8882C21.0208 18.9586 21.0208 19.0414 21.056 19.1118L21.8191 20.6382C21.9023 20.8044 21.7814 21 21.5955 21L18.2501 21C18.112 21 18.0001 20.8881 18.0001 20.75L18.0001 17.25C18.0001 17.1119 18.112 17 18.2501 17L21.5955 17C21.7814 17 21.9023 17.1956 21.8191 17.3618ZM2.18095 17.3618L2.94415 18.8882C2.97934 18.9586 2.97934 19.0414 2.94415 19.1118L2.18095 20.6382C2.09784 20.8044 2.21871 21 2.40456 21L5.75005 21C5.88812 21 6.00005 20.8881 6.00005 20.75L6.00005 17.25C6.00005 17.1119 5.88812 17 5.75005 17L2.40456 17C2.21871 17 2.09784 17.1956 2.18095 17.3618Z" fill="#9B0F15"/>
    <path fill-rule="evenodd" clip-rule="evenodd" d="M2.53855 17.2261C2.58433 17.1534 2.66419 17.1094 2.75005 17.1094H3.81255C3.95062 17.1094 4.06255 17.2213 4.06255 17.3594C4.06255 17.4974 3.95062 17.6094 3.81255 17.6094H3.14674L3.66308 18.689C3.72266 18.8136 3.66997 18.9628 3.54541 19.0224C3.42086 19.082 3.27159 19.0293 3.21202 18.9047L2.52452 17.4672C2.48747 17.3898 2.49277 17.2987 2.53855 17.2261Z" fill="#DF3840"/>
    <path d="M19.0001 19.75L19.0001 16.25C19.0001 16.1119 18.8881 16 18.7501 16L5.25005 16C5.11198 16 5.00005 16.1119 5.00005 16.25L5.00005 19.75C5.00005 19.8881 5.11198 20 5.25005 20L18.7501 20C18.8881 20 19.0001 19.8881 19.0001 19.75Z" fill="#F1333B"/>
    <path fill-rule="evenodd" clip-rule="evenodd" d="M19.5001 16.25L19.5001 19.75C19.5001 20.1642 19.1643 20.5 18.7501 20.5L5.25005 20.5C4.83584 20.5 4.50005 20.1642 4.50005 19.75L4.50005 16.25C4.50005 15.8358 4.83584 15.5 5.25005 15.5L18.7501 15.5C19.1643 15.5 19.5001 15.8358 19.5001 16.25ZM19.0001 16.25L19.0001 19.75C19.0001 19.8881 18.8881 20 18.7501 20L5.25005 20C5.11198 20 5.00005 19.8881 5.00005 19.75L5.00005 16.25C5.00005 16.1119 5.11198 16 5.25005 16L18.7501 16C18.8881 16 19.0001 16.1119 19.0001 16.25Z" fill="#9B0F15"/>
    <path d="M18.3094 18.0949C18.1678 18.0949 18.0531 17.9829 18.0531 17.8448C18.0531 17.7067 18.1678 17.5947 18.3094 17.5947C18.4509 17.5947 18.5657 17.7067 18.5657 17.8448C18.5657 17.9829 18.4509 18.0949 18.3094 18.0949Z" fill="#DB1B24"/>
    <path d="M17.3341 17.9949C17.158 17.9949 17.0152 17.8557 17.0152 17.6839C17.0152 17.5121 17.158 17.3728 17.3341 17.3728C17.5102 17.3728 17.6529 17.5121 17.6529 17.6839C17.6529 17.8557 17.5102 17.9949 17.3341 17.9949Z" fill="#DB1B24"/>
    <path d="M17.7686 18.7061C17.6805 18.7061 17.6092 18.6365 17.6092 18.5506C17.6092 18.4647 17.6805 18.395 17.7686 18.395C17.8566 18.395 17.928 18.4647 17.928 18.5506C17.928 18.6365 17.8566 18.7061 17.7686 18.7061Z" fill="#DB1B24"/>
    <path d="M17.4935 17.0611C17.4055 17.0611 17.3341 16.9914 17.3341 16.9055C17.3341 16.8196 17.4055 16.75 17.4935 16.75C17.5816 16.75 17.6529 16.8196 17.6529 16.9055C17.6529 16.9914 17.5816 17.0611 17.4935 17.0611Z" fill="#DB1B24"/>
    <path d="M16.6558 18.5506C16.5677 18.5506 16.4963 18.4809 16.4963 18.395C16.4963 18.3091 16.5677 18.2395 16.6558 18.2395C16.7438 18.2395 16.8152 18.3091 16.8152 18.395C16.8152 18.4809 16.7438 18.5506 16.6558 18.5506Z" fill="#DB1B24"/>
    <path d="M16.4963 17.7503C16.4083 17.7503 16.3369 17.6806 16.3369 17.5947C16.3369 17.5088 16.4083 17.4392 16.4963 17.4392C16.5844 17.4392 16.6558 17.5088 16.6558 17.5947C16.6558 17.6806 16.5844 17.7503 16.4963 17.7503Z" fill="#DB1B24"/>
    <path d="M15.4095 19.5545C15.3214 19.5545 15.2501 19.4848 15.2501 19.3989C15.2501 19.313 15.3214 19.2434 15.4095 19.2434C15.4975 19.2434 15.5689 19.313 15.5689 19.3989C15.5689 19.4848 15.4975 19.5545 15.4095 19.5545Z" fill="#DB1B24"/>
    <path d="M18.5814 18.9607C18.4933 18.9607 18.4219 18.8911 18.4219 18.8052C18.4219 18.7193 18.4933 18.6497 18.5814 18.6497C18.6694 18.6497 18.7408 18.7193 18.7408 18.8052C18.7408 18.8911 18.6694 18.9607 18.5814 18.9607Z" fill="#DB1B24"/>
    <path d="M17.0746 19.3014C16.9313 19.3014 16.8152 19.1881 16.8152 19.0483C16.8152 18.9085 16.9313 18.7952 17.0746 18.7952C17.2179 18.7952 17.3341 18.9085 17.3341 19.0483C17.3341 19.1881 17.2179 19.3014 17.0746 19.3014Z" fill="#DB1B24"/>
    <path d="M18.1875 19.5545C18.0442 19.5545 17.928 19.4411 17.928 19.3013C17.928 19.1615 18.0442 19.0482 18.1875 19.0482C18.3308 19.0482 18.4469 19.1615 18.4469 19.3013C18.4469 19.4411 18.3308 19.5545 18.1875 19.5545Z" fill="#DB1B24"/>
    <path d="M15.918 19.0568C15.7747 19.0568 15.6586 18.9435 15.6586 18.8037C15.6586 18.6639 15.7747 18.5505 15.918 18.5505C16.0613 18.5505 16.1775 18.6639 16.1775 18.8037C16.1775 18.9435 16.0613 19.0568 15.918 19.0568Z" fill="#DB1B24"/>
    <path d="M16.3369 19.6314C16.2489 19.6314 16.1775 19.5617 16.1775 19.4758C16.1775 19.3899 16.2489 19.3203 16.3369 19.3203C16.425 19.3203 16.4963 19.3899 16.4963 19.4758C16.4963 19.5617 16.425 19.6314 16.3369 19.6314Z" fill="#DB1B24"/>
    <path fill-rule="evenodd" clip-rule="evenodd" d="M5.1563 16.3594C5.1563 16.2213 5.26823 16.1094 5.4063 16.1094H14.7813C14.9194 16.1094 15.0313 16.2213 15.0313 16.3594C15.0313 16.4974 14.9194 16.6094 14.7813 16.6094H5.6563V18.3594C5.6563 18.4974 5.54437 18.6094 5.4063 18.6094C5.26823 18.6094 5.1563 18.4974 5.1563 18.3594V16.3594Z" fill="#FE666D"/>
    <path d="M13.5723 13.1482H10.4319V12.5251L11.914 10.9455C12.1175 10.7231 12.2675 10.5291 12.364 10.3634C12.4626 10.1976 12.5119 10.0403 12.5119 9.89136C12.5119 9.68787 12.4605 9.52844 12.3577 9.41306C12.2549 9.29558 12.108 9.23684 11.9171 9.23684C11.7115 9.23684 11.549 9.30817 11.4294 9.45082C11.3119 9.59137 11.2532 9.77703 11.2532 10.0078H10.3406C10.3406 9.72878 10.4067 9.4739 10.5389 9.24314C10.6731 9.01238 10.8619 8.83197 11.1053 8.7019C11.3486 8.56974 11.6245 8.50366 11.9329 8.50366C12.4049 8.50366 12.7709 8.61694 13.0311 8.84351C13.2933 9.07007 13.4244 9.38998 13.4244 9.80325C13.4244 10.0298 13.3657 10.2606 13.2482 10.4955C13.1307 10.7305 12.9293 11.0042 12.644 11.3168L11.6025 12.415H13.5723V13.1482Z" fill="#D9EAEF"/>
    <path fill-rule="evenodd" clip-rule="evenodd" d="M14.1093 13.1481C14.1093 13.4447 13.8689 13.6852 13.5723 13.6852H10.4319C10.1353 13.6852 9.89485 13.4447 9.89485 13.1481V12.5251C9.89485 12.3886 9.94683 12.2572 10.0402 12.1576L11.52 10.5805C11.7092 10.3734 11.8306 10.212 11.8999 10.0931L11.9024 10.0887C11.9659 9.98208 11.9748 9.91905 11.9748 9.89129C11.9748 9.8339 11.9675 9.80034 11.9622 9.78387C11.9613 9.78106 11.9604 9.77873 11.9597 9.77682C11.9511 9.77534 11.9373 9.77381 11.9171 9.77381C11.877 9.77381 11.8601 9.78058 11.8568 9.78206C11.8546 9.78298 11.8532 9.78385 11.8516 9.78504C11.85 9.78626 11.8465 9.78922 11.8412 9.79545C11.8236 9.81665 11.7902 9.86994 11.7902 10.0077C11.7902 10.3043 11.5498 10.5448 11.2532 10.5448H10.3406C10.044 10.5448 9.80359 10.3043 9.80359 10.0077C9.80359 9.63986 9.89183 9.29223 10.0729 8.97616L10.0747 8.97299C10.2605 8.65364 10.5232 8.40437 10.8506 8.22904C11.1808 8.05006 11.5459 7.96655 11.9329 7.96655C12.4862 7.96655 12.9943 8.09964 13.383 8.43776C13.7856 8.78604 13.9614 9.26723 13.9614 9.80318C13.9614 10.1255 13.8773 10.438 13.7285 10.7356C13.5796 11.0334 13.3417 11.349 13.0407 11.6788C13.0384 11.6813 13.036 11.6838 13.0337 11.6863L12.852 11.8779H13.5723C13.8689 11.8779 14.1093 12.1183 14.1093 12.4149V13.1481ZM11.6025 12.4149L12.644 11.3167C12.9293 11.0042 13.1307 10.7304 13.2482 10.4955C13.3657 10.2605 13.4244 10.0297 13.4244 9.80318C13.4244 9.38991 13.2933 9.07 13.0311 8.84343C12.7709 8.61687 12.4049 8.50359 11.9329 8.50359C11.6245 8.50359 11.3486 8.56967 11.1053 8.70183C10.8619 8.8319 10.6731 9.01231 10.5389 9.24306C10.4968 9.31649 10.4615 9.39236 10.4328 9.47068C10.3713 9.63847 10.3406 9.81749 10.3406 10.0077H11.2532C11.2532 9.77696 11.3119 9.5913 11.4294 9.45075C11.549 9.3081 11.7115 9.23677 11.9171 9.23677C12.108 9.23677 12.2549 9.29551 12.3577 9.41299C12.4605 9.52837 12.5119 9.6878 12.5119 9.89129C12.5119 10.0402 12.4626 10.1976 12.364 10.3633C12.2675 10.529 12.1175 10.7231 11.914 10.9454L10.4319 12.5251V13.1481H13.5723V12.4149H11.6025Z" fill="#81A5B0"/>
</svg>
